<svg width="442" height="107" viewBox="0 0 442 107" fill="none" xmlns="http://www.w3.org/2000/svg">
<path d="M133.394 103H130.428L134.947 89.9091H138.514L143.027 103H140.061L136.782 92.9006H136.68L133.394 103ZM133.209 97.8544H140.214V100.015H133.209V97.8544ZM153.205 93.674C153.154 93.1584 152.935 92.7578 152.547 92.4723C152.159 92.1868 151.633 92.044 150.968 92.044C150.516 92.044 150.135 92.108 149.824 92.2358C149.513 92.3594 149.274 92.532 149.108 92.7536C148.946 92.9751 148.865 93.2266 148.865 93.5078C148.857 93.7422 148.906 93.9467 149.012 94.1214C149.123 94.2962 149.274 94.4474 149.466 94.5753C149.658 94.6989 149.879 94.8075 150.131 94.9013C150.382 94.9908 150.651 95.0675 150.936 95.1314L152.112 95.4126C152.683 95.5405 153.207 95.7109 153.685 95.924C154.162 96.1371 154.575 96.3991 154.925 96.7102C155.274 97.0213 155.545 97.3878 155.737 97.8097C155.933 98.2315 156.033 98.7152 156.037 99.2607C156.033 100.062 155.828 100.756 155.423 101.344C155.023 101.928 154.443 102.382 153.685 102.706C152.931 103.026 152.021 103.185 150.955 103.185C149.899 103.185 148.978 103.023 148.194 102.7C147.414 102.376 146.805 101.896 146.366 101.261C145.931 100.622 145.703 99.8317 145.682 98.8899H148.36C148.39 99.3288 148.516 99.6953 148.737 99.9893C148.963 100.279 149.264 100.499 149.639 100.648C150.018 100.793 150.446 100.865 150.923 100.865C151.392 100.865 151.799 100.797 152.144 100.661C152.494 100.524 152.764 100.335 152.956 100.092C153.148 99.8487 153.244 99.5696 153.244 99.2543C153.244 98.9602 153.156 98.7131 152.982 98.5128C152.811 98.3125 152.56 98.142 152.227 98.0014C151.899 97.8608 151.497 97.733 151.019 97.6179L149.594 97.2599C148.49 96.9915 147.619 96.5717 146.98 96.0007C146.34 95.4297 146.023 94.6605 146.027 93.6932C146.023 92.9006 146.234 92.2081 146.66 91.6158C147.09 91.0234 147.681 90.5611 148.431 90.2287C149.181 89.8963 150.033 89.7301 150.987 89.7301C151.959 89.7301 152.807 89.8963 153.531 90.2287C154.26 90.5611 154.827 91.0234 155.232 91.6158C155.636 92.2081 155.845 92.8942 155.858 93.674H153.205ZM159.699 103V89.9091H164.863C165.856 89.9091 166.702 90.0987 167.401 90.478C168.1 90.853 168.633 91.375 168.999 92.044C169.37 92.7088 169.555 93.4759 169.555 94.3452C169.555 95.2145 169.368 95.9815 168.993 96.6463C168.618 97.3111 168.074 97.8288 167.363 98.1996C166.655 98.5703 165.799 98.7557 164.793 98.7557H161.501V96.5376H164.346C164.878 96.5376 165.317 96.446 165.663 96.2628C166.012 96.0753 166.272 95.8175 166.442 95.4893C166.617 95.157 166.704 94.7756 166.704 94.3452C166.704 93.9105 166.617 93.5312 166.442 93.2074C166.272 92.8793 166.012 92.6257 165.663 92.4467C165.313 92.2635 164.87 92.1719 164.333 92.1719H162.466V103H159.699ZM175.921 89.9091V103H173.153V89.9091H175.921ZM179.998 103V89.9091H185.163C186.151 89.9091 186.995 90.0859 187.694 90.4396C188.397 90.7891 188.932 91.2855 189.298 91.929C189.669 92.5682 189.854 93.3203 189.854 94.1854C189.854 95.0547 189.667 95.8026 189.292 96.429C188.917 97.0511 188.374 97.5284 187.662 97.8608C186.955 98.1932 186.098 98.3594 185.092 98.3594H181.634V96.1349H184.645C185.173 96.1349 185.612 96.0625 185.962 95.9176C186.311 95.7727 186.571 95.5554 186.742 95.2656C186.916 94.9759 187.004 94.6158 187.004 94.1854C187.004 93.7507 186.916 93.3842 186.742 93.0859C186.571 92.7876 186.309 92.5618 185.955 92.4084C185.606 92.2507 185.165 92.1719 184.632 92.1719H182.766V103H179.998ZM187.068 97.0426L190.321 103H187.266L184.082 97.0426H187.068ZM196.378 89.9091V103H193.61V89.9091H196.378ZM211.405 89.9091V103H209.014L203.319 94.7607H203.223V103H200.455V89.9091H202.884L208.535 98.142H208.65V89.9091H211.405ZM224.172 94.1406C224.083 93.8295 223.957 93.5547 223.795 93.3161C223.633 93.0732 223.435 92.8686 223.2 92.7024C222.97 92.532 222.706 92.402 222.408 92.3125C222.114 92.223 221.788 92.1783 221.43 92.1783C220.761 92.1783 220.173 92.3445 219.666 92.6768C219.163 93.0092 218.771 93.4929 218.49 94.1278C218.208 94.7585 218.068 95.5298 218.068 96.4418C218.068 97.3537 218.206 98.1293 218.483 98.7685C218.76 99.4077 219.152 99.8956 219.659 100.232C220.166 100.565 220.765 100.731 221.455 100.731C222.082 100.731 222.617 100.62 223.06 100.398C223.507 100.173 223.848 99.8551 224.083 99.446C224.321 99.0369 224.441 98.5533 224.441 97.995L225.003 98.0781H221.628V95.9943H227.106V97.6435C227.106 98.794 226.863 99.7827 226.377 100.609C225.892 101.432 225.223 102.067 224.37 102.514C223.518 102.957 222.542 103.179 221.443 103.179C220.215 103.179 219.137 102.908 218.208 102.367C217.279 101.822 216.555 101.048 216.035 100.047C215.519 99.0412 215.262 97.848 215.262 96.4673C215.262 95.4062 215.415 94.4602 215.722 93.6293C216.033 92.794 216.468 92.0866 217.026 91.5071C217.584 90.9276 218.234 90.4865 218.975 90.1839C219.717 89.8814 220.52 89.7301 221.385 89.7301C222.127 89.7301 222.817 89.8388 223.456 90.0561C224.095 90.2692 224.662 90.5717 225.156 90.9638C225.655 91.3558 226.062 91.8224 226.377 92.3636C226.693 92.9006 226.895 93.4929 226.985 94.1406H224.172ZM236.452 92.1911V89.9091H247.204V92.1911H243.196V103H240.46V92.1911H236.452ZM262.207 96.4545C262.207 97.8821 261.936 99.0966 261.395 100.098C260.858 101.099 260.125 101.864 259.196 102.393C258.271 102.917 257.232 103.179 256.077 103.179C254.913 103.179 253.869 102.915 252.945 102.386C252.02 101.858 251.289 101.093 250.752 100.092C250.215 99.0902 249.947 97.8778 249.947 96.4545C249.947 95.027 250.215 93.8125 250.752 92.8111C251.289 91.8097 252.02 91.0469 252.945 90.5227C253.869 89.9943 254.913 89.7301 256.077 89.7301C257.232 89.7301 258.271 89.9943 259.196 90.5227C260.125 91.0469 260.858 91.8097 261.395 92.8111C261.936 93.8125 262.207 95.027 262.207 96.4545ZM259.401 96.4545C259.401 95.5298 259.262 94.75 258.985 94.1151C258.712 93.4801 258.327 92.9986 257.828 92.6705C257.33 92.3423 256.746 92.1783 256.077 92.1783C255.408 92.1783 254.824 92.3423 254.325 92.6705C253.827 92.9986 253.439 93.4801 253.162 94.1151C252.889 94.75 252.753 95.5298 252.753 96.4545C252.753 97.3793 252.889 98.1591 253.162 98.794C253.439 99.429 253.827 99.9105 254.325 100.239C254.824 100.567 255.408 100.731 256.077 100.731C256.746 100.731 257.33 100.567 257.828 100.239C258.327 99.9105 258.712 99.429 258.985 98.794C259.262 98.1591 259.401 97.3793 259.401 96.4545ZM271.256 89.9091H274.356L277.341 95.5469H277.469L280.454 89.9091H283.554L278.779 98.3722V103H276.031V98.3722L271.256 89.9091ZM298.105 96.4545C298.105 97.8821 297.834 99.0966 297.293 100.098C296.756 101.099 296.023 101.864 295.094 102.393C294.169 102.917 293.13 103.179 291.975 103.179C290.811 103.179 289.767 102.915 288.843 102.386C287.918 101.858 287.187 101.093 286.65 100.092C286.113 99.0902 285.845 97.8778 285.845 96.4545C285.845 95.027 286.113 93.8125 286.65 92.8111C287.187 91.8097 287.918 91.0469 288.843 90.5227C289.767 89.9943 290.811 89.7301 291.975 89.7301C293.13 89.7301 294.169 89.9943 295.094 90.5227C296.023 91.0469 296.756 91.8097 297.293 92.8111C297.834 93.8125 298.105 95.027 298.105 96.4545ZM295.299 96.4545C295.299 95.5298 295.16 94.75 294.883 94.1151C294.61 93.4801 294.225 92.9986 293.726 92.6705C293.228 92.3423 292.644 92.1783 291.975 92.1783C291.306 92.1783 290.722 92.3423 290.223 92.6705C289.725 92.9986 289.337 93.4801 289.06 94.1151C288.787 94.75 288.651 95.5298 288.651 96.4545C288.651 97.3793 288.787 98.1591 289.06 98.794C289.337 99.429 289.725 99.9105 290.223 100.239C290.722 100.567 291.306 100.731 291.975 100.731C292.644 100.731 293.228 100.567 293.726 100.239C294.225 99.9105 294.61 99.429 294.883 98.794C295.16 98.1591 295.299 97.3793 295.299 96.4545ZM310.041 89.9091H312.809V98.4105C312.809 99.3651 312.581 100.2 312.125 100.916C311.673 101.632 311.04 102.19 310.226 102.591C309.412 102.987 308.464 103.185 307.382 103.185C306.295 103.185 305.345 102.987 304.531 102.591C303.717 102.19 303.084 101.632 302.633 100.916C302.181 100.2 301.955 99.3651 301.955 98.4105V89.9091H304.723V98.174C304.723 98.6726 304.831 99.1158 305.049 99.5036C305.27 99.8913 305.581 100.196 305.982 100.418C306.383 100.639 306.849 100.75 307.382 100.75C307.919 100.75 308.385 100.639 308.782 100.418C309.182 100.196 309.491 99.8913 309.709 99.5036C309.93 99.1158 310.041 98.6726 310.041 98.174V89.9091ZM316.886 103V89.9091H322.051C323.039 89.9091 323.883 90.0859 324.582 90.4396C325.285 90.7891 325.82 91.2855 326.186 91.929C326.557 92.5682 326.742 93.3203 326.742 94.1854C326.742 95.0547 326.555 95.8026 326.18 96.429C325.805 97.0511 325.262 97.5284 324.55 97.8608C323.843 98.1932 322.986 98.3594 321.98 98.3594H318.522V96.1349H321.533C322.061 96.1349 322.5 96.0625 322.85 95.9176C323.199 95.7727 323.459 95.5554 323.629 95.2656C323.804 94.9759 323.892 94.6158 323.892 94.1854C323.892 93.7507 323.804 93.3842 323.629 93.0859C323.459 92.7876 323.197 92.5618 322.843 92.4084C322.494 92.2507 322.053 92.1719 321.52 92.1719H319.654V103H316.886ZM323.955 97.0426L327.209 103H324.154L320.97 97.0426H323.955ZM343.566 93.674C343.515 93.1584 343.295 92.7578 342.908 92.4723C342.52 92.1868 341.993 92.044 341.329 92.044C340.877 92.044 340.496 92.108 340.185 92.2358C339.873 92.3594 339.635 92.532 339.469 92.7536C339.307 92.9751 339.226 93.2266 339.226 93.5078C339.217 93.7422 339.266 93.9467 339.373 94.1214C339.484 94.2962 339.635 94.4474 339.827 94.5753C340.018 94.6989 340.24 94.8075 340.491 94.9013C340.743 94.9908 341.011 95.0675 341.297 95.1314L342.473 95.4126C343.044 95.5405 343.568 95.7109 344.045 95.924C344.523 96.1371 344.936 96.3991 345.285 96.7102C345.635 97.0213 345.905 97.3878 346.097 97.8097C346.293 98.2315 346.393 98.7152 346.398 99.2607C346.393 100.062 346.189 100.756 345.784 101.344C345.383 101.928 344.804 102.382 344.045 102.706C343.291 103.026 342.381 103.185 341.316 103.185C340.259 103.185 339.339 103.023 338.555 102.7C337.775 102.376 337.165 101.896 336.726 101.261C336.292 100.622 336.064 99.8317 336.042 98.8899H338.721C338.751 99.3288 338.876 99.6953 339.098 99.9893C339.324 100.279 339.624 100.499 339.999 100.648C340.378 100.793 340.807 100.865 341.284 100.865C341.753 100.865 342.16 100.797 342.505 100.661C342.854 100.524 343.125 100.335 343.317 100.092C343.508 99.8487 343.604 99.5696 343.604 99.2543C343.604 98.9602 343.517 98.7131 343.342 98.5128C343.172 98.3125 342.92 98.142 342.588 98.0014C342.26 97.8608 341.857 97.733 341.38 97.6179L339.954 97.2599C338.851 96.9915 337.979 96.5717 337.34 96.0007C336.701 95.4297 336.383 94.6605 336.388 93.6932C336.383 92.9006 336.594 92.2081 337.02 91.6158C337.451 91.0234 338.041 90.5611 338.791 90.2287C339.541 89.8963 340.393 89.7301 341.348 89.7301C342.319 89.7301 343.167 89.8963 343.892 90.2287C344.621 90.5611 345.187 91.0234 345.592 91.6158C345.997 92.2081 346.206 92.8942 346.219 93.674H343.566ZM358.145 89.9091H360.913V98.4105C360.913 99.3651 360.685 100.2 360.229 100.916C359.777 101.632 359.144 102.19 358.331 102.591C357.517 102.987 356.568 103.185 355.486 103.185C354.399 103.185 353.449 102.987 352.635 102.591C351.821 102.19 351.189 101.632 350.737 100.916C350.285 100.2 350.059 99.3651 350.059 98.4105V89.9091H352.827V98.174C352.827 98.6726 352.936 99.1158 353.153 99.5036C353.375 99.8913 353.686 100.196 354.086 100.418C354.487 100.639 354.953 100.75 355.486 100.75C356.023 100.75 356.49 100.639 356.886 100.418C357.287 100.196 357.595 99.8913 357.813 99.5036C358.034 99.1158 358.145 98.6726 358.145 98.174V89.9091ZM376.541 94.4922H373.741C373.69 94.13 373.585 93.8082 373.428 93.527C373.27 93.2415 373.068 92.9986 372.82 92.7983C372.573 92.598 372.288 92.4446 371.964 92.3381C371.644 92.2315 371.297 92.1783 370.922 92.1783C370.244 92.1783 369.654 92.3466 369.151 92.6832C368.649 93.0156 368.259 93.5014 367.982 94.1406C367.705 94.7756 367.566 95.5469 367.566 96.4545C367.566 97.3878 367.705 98.1719 367.982 98.8068C368.263 99.4418 368.655 99.9212 369.158 100.245C369.661 100.569 370.242 100.731 370.903 100.731C371.274 100.731 371.617 100.682 371.932 100.584C372.251 100.486 372.535 100.343 372.782 100.156C373.029 99.9638 373.234 99.7315 373.396 99.4588C373.562 99.1861 373.677 98.875 373.741 98.5256L376.541 98.5384C376.468 99.1392 376.287 99.7188 375.997 100.277C375.712 100.831 375.326 101.327 374.84 101.766C374.359 102.201 373.783 102.546 373.114 102.802C372.45 103.053 371.698 103.179 370.858 103.179C369.69 103.179 368.646 102.915 367.726 102.386C366.81 101.858 366.085 101.093 365.553 100.092C365.024 99.0902 364.76 97.8778 364.76 96.4545C364.76 95.027 365.028 93.8125 365.565 92.8111C366.102 91.8097 366.831 91.0469 367.751 90.5227C368.672 89.9943 369.707 89.7301 370.858 89.7301C371.617 89.7301 372.32 89.8366 372.967 90.0497C373.619 90.2628 374.197 90.5739 374.7 90.983C375.202 91.3878 375.612 91.8842 375.927 92.4723C376.247 93.0604 376.451 93.7337 376.541 94.4922ZM391.876 94.4922H389.076C389.025 94.13 388.92 93.8082 388.763 93.527C388.605 93.2415 388.403 92.9986 388.156 92.7983C387.908 92.598 387.623 92.4446 387.299 92.3381C386.979 92.2315 386.632 92.1783 386.257 92.1783C385.58 92.1783 384.989 92.3466 384.487 92.6832C383.984 93.0156 383.594 93.5014 383.317 94.1406C383.04 94.7756 382.901 95.5469 382.901 96.4545C382.901 97.3878 383.04 98.1719 383.317 98.8068C383.598 99.4418 383.99 99.9212 384.493 100.245C384.996 100.569 385.577 100.731 386.238 100.731C386.609 100.731 386.952 100.682 387.267 100.584C387.587 100.486 387.87 100.343 388.117 100.156C388.364 99.9638 388.569 99.7315 388.731 99.4588C388.897 99.1861 389.012 98.875 389.076 98.5256L391.876 98.5384C391.803 99.1392 391.622 99.7188 391.332 100.277C391.047 100.831 390.661 101.327 390.175 101.766C389.694 102.201 389.119 102.546 388.45 102.802C387.785 103.053 387.033 103.179 386.193 103.179C385.026 103.179 383.982 102.915 383.061 102.386C382.145 101.858 381.42 101.093 380.888 100.092C380.359 99.0902 380.095 97.8778 380.095 96.4545C380.095 95.027 380.364 93.8125 380.901 92.8111C381.438 91.8097 382.166 91.0469 383.087 90.5227C384.007 89.9943 385.043 89.7301 386.193 89.7301C386.952 89.7301 387.655 89.8366 388.303 90.0497C388.955 90.2628 389.532 90.5739 390.035 90.983C390.538 91.3878 390.947 91.8842 391.262 92.4723C391.582 93.0604 391.786 93.7337 391.876 94.4922ZM395.66 103V89.9091H404.481V92.1911H398.428V95.3104H404.028V97.5923H398.428V100.718H404.507V103H395.66ZM415.583 93.674C415.532 93.1584 415.313 92.7578 414.925 92.4723C414.537 92.1868 414.011 92.044 413.346 92.044C412.895 92.044 412.513 92.108 412.202 92.2358C411.891 92.3594 411.652 92.532 411.486 92.7536C411.324 92.9751 411.243 93.2266 411.243 93.5078C411.235 93.7422 411.284 93.9467 411.39 94.1214C411.501 94.2962 411.652 94.4474 411.844 94.5753C412.036 94.6989 412.257 94.8075 412.509 94.9013C412.76 94.9908 413.029 95.0675 413.314 95.1314L414.49 95.4126C415.061 95.5405 415.586 95.7109 416.063 95.924C416.54 96.1371 416.954 96.3991 417.303 96.7102C417.652 97.0213 417.923 97.3878 418.115 97.8097C418.311 98.2315 418.411 98.7152 418.415 99.2607C418.411 100.062 418.206 100.756 417.802 101.344C417.401 101.928 416.821 102.382 416.063 102.706C415.309 103.026 414.399 103.185 413.333 103.185C412.277 103.185 411.356 103.023 410.572 102.7C409.792 102.376 409.183 101.896 408.744 101.261C408.309 100.622 408.081 99.8317 408.06 98.8899H410.738C410.768 99.3288 410.894 99.6953 411.115 99.9893C411.341 100.279 411.642 100.499 412.017 100.648C412.396 100.793 412.824 100.865 413.302 100.865C413.77 100.865 414.177 100.797 414.522 100.661C414.872 100.524 415.142 100.335 415.334 100.092C415.526 99.8487 415.622 99.5696 415.622 99.2543C415.622 98.9602 415.534 98.7131 415.36 98.5128C415.189 98.3125 414.938 98.142 414.606 98.0014C414.277 97.8608 413.875 97.733 413.397 97.6179L411.972 97.2599C410.868 96.9915 409.997 96.5717 409.358 96.0007C408.718 95.4297 408.401 94.6605 408.405 93.6932C408.401 92.9006 408.612 92.2081 409.038 91.6158C409.468 91.0234 410.059 90.5611 410.809 90.2287C411.559 89.8963 412.411 89.7301 413.365 89.7301C414.337 89.7301 415.185 89.8963 415.909 90.2287C416.638 90.5611 417.205 91.0234 417.61 91.6158C418.015 92.2081 418.223 92.8942 418.236 93.674H415.583ZM429.178 93.674C429.127 93.1584 428.908 92.7578 428.52 92.4723C428.132 92.1868 427.606 92.044 426.941 92.044C426.489 92.044 426.108 92.108 425.797 92.2358C425.486 92.3594 425.247 92.532 425.081 92.7536C424.919 92.9751 424.838 93.2266 424.838 93.5078C424.83 93.7422 424.879 93.9467 424.985 94.1214C425.096 94.2962 425.247 94.4474 425.439 94.5753C425.631 94.6989 425.852 94.8075 426.104 94.9013C426.355 94.9908 426.624 95.0675 426.909 95.1314L428.085 95.4126C428.656 95.5405 429.181 95.7109 429.658 95.924C430.135 96.1371 430.548 96.3991 430.898 96.7102C431.247 97.0213 431.518 97.3878 431.71 97.8097C431.906 98.2315 432.006 98.7152 432.01 99.2607C432.006 100.062 431.801 100.756 431.396 101.344C430.996 101.928 430.416 102.382 429.658 102.706C428.904 103.026 427.994 103.185 426.928 103.185C425.872 103.185 424.951 103.023 424.167 102.7C423.387 102.376 422.778 101.896 422.339 101.261C421.904 100.622 421.676 99.8317 421.655 98.8899H424.333C424.363 99.3288 424.489 99.6953 424.71 99.9893C424.936 100.279 425.237 100.499 425.612 100.648C425.991 100.793 426.419 100.865 426.896 100.865C427.365 100.865 427.772 100.797 428.117 100.661C428.467 100.524 428.737 100.335 428.929 100.092C429.121 99.8487 429.217 99.5696 429.217 99.2543C429.217 98.9602 429.129 98.7131 428.955 98.5128C428.784 98.3125 428.533 98.142 428.2 98.0014C427.872 97.8608 427.47 97.733 426.992 97.6179L425.567 97.2599C424.463 96.9915 423.592 96.5717 422.953 96.0007C422.313 95.4297 421.996 94.6605 422 93.6932C421.996 92.9006 422.207 92.2081 422.633 91.6158C423.063 91.0234 423.654 90.5611 424.404 90.2287C425.154 89.8963 426.006 89.7301 426.96 89.7301C427.932 89.7301 428.78 89.8963 429.504 90.2287C430.233 90.5611 430.8 91.0234 431.205 91.6158C431.61 92.2081 431.818 92.8942 431.831 93.674H429.178Z" fill="black"/>
<path d="M57.4595 53.5217C57.5303 52.8411 57.5724 52.1534 57.5724 51.4572C57.5724 51.1279 57.5598 50.8011 57.5433 50.4752C56.9491 38.3741 45.4342 28.6873 31.3598 28.6873C16.906 28.6873 5.14722 38.9019 5.14722 51.4572C5.14722 64.0123 16.906 74.227 31.3598 74.227C32.0344 74.227 32.7013 74.1975 33.3637 74.1538C34.3922 74.0859 35.4045 73.9693 36.3963 73.8008C47.689 71.8834 56.4059 63.6496 57.4595 53.5217ZM20.1248 51.9758C15.1366 51.9758 11.0783 47.9257 11.0783 42.9476C11.0783 37.9693 15.1366 33.9192 20.1248 33.9192C25.1135 33.9192 29.1718 37.9693 29.1718 42.9476C29.1718 47.9257 25.1135 51.9758 20.1248 51.9758ZM41.6543 51.9758C36.6656 51.9758 32.6071 47.9257 32.6071 42.9476C32.6071 37.9693 36.6656 33.9192 41.6543 33.9192C46.6424 33.9192 50.7009 37.9693 50.7009 42.9476C50.7009 47.9257 46.6424 51.9758 41.6543 51.9758Z" fill="#030303"/>
<path d="M40.5205 38.1519C37.8386 38.1519 35.6575 40.3289 35.6575 43.0047C35.6575 45.6807 37.8386 47.8575 40.5205 47.8575C43.2016 47.8575 45.383 45.6807 45.383 43.0047C45.383 40.3289 43.2016 38.1519 40.5205 38.1519Z" fill="#030303"/>
<path d="M21.5952 38.1519C18.9133 38.1519 16.7322 40.3289 16.7322 43.0047C16.7322 45.6807 18.9133 47.8575 21.5952 47.8575C24.2763 47.8575 26.4577 45.6807 26.4577 43.0047C26.4577 40.3289 24.2763 38.1519 21.5952 38.1519Z" fill="#030303"/>
<path d="M7.24428 10.0044C7.24428 8.01132 5.6193 6.38977 3.62214 6.38977C1.62498 6.38977 0 8.01132 0 10.0044C0 11.9975 1.62498 13.6189 3.62214 13.6189C5.6193 13.6189 7.24428 11.9975 7.24428 10.0044Z" fill="#030303"/>
<path d="M78.0617 61.58C78.9841 61.0457 79.8675 60.4797 80.6781 59.8818C82.1218 58.8171 83.3069 57.6391 84.1118 56.4168C91.206 45.6469 82.4828 41.1871 82.4828 41.1871C67.4861 34.7823 66.9064 51.7206 66.9064 51.7206C66.7401 52.7786 66.6083 53.8012 66.5077 54.7833C66.4303 55.5453 66.3725 56.2783 66.3283 56.9894C66.0608 61.2935 66.3535 64.6334 66.6046 66.484C69.0831 65.6862 73.9493 63.9628 78.0617 61.58Z" fill="#030303"/>
<path d="M36.5072 7.22914C38.5044 7.22914 40.1293 5.60759 40.1293 3.61457C40.1293 1.62155 38.5044 0 36.5072 0C34.5098 0 32.885 1.62155 32.885 3.61457C32.885 5.60759 34.5098 7.22914 36.5072 7.22914Z" fill="#030303"/>
<path d="M65.7966 69.9137L64.2584 70.3407L63.9018 68.7876C63.8686 68.6442 63.567 67.2849 63.357 64.9859C61.1848 69.7855 58.2322 74.897 54.5116 80.2871C51.0911 85.2427 47.8379 89.2332 45.8242 91.5881C47.6805 93.0825 49.7554 94.3675 52.0119 95.3959C54.2158 96.4006 56.5365 97.1177 58.8815 97.5438C63.0916 93.1959 73.4578 81.2795 78.6101 64.7468C72.7514 67.9538 66.2209 69.7961 65.7966 69.9137Z" fill="#030303"/>
<path d="M85.4178 81.115C86.1855 75.86 84.7268 70.3749 81.518 65.6763C76.7182 81.1266 67.7272 92.4869 62.6963 97.9694C63.0586 97.9842 63.4209 97.9999 63.7815 97.9999C72.4607 97.9999 79.8785 93.8667 83.4328 87.1516C83.5117 87.0021 83.5873 86.8503 83.6629 86.6981L98.0001 87.3388L85.4178 81.115Z" fill="#030303"/>
<path d="M63.5125 54.0285C62.5153 53.8332 61.5142 53.6922 60.5132 53.6064C59.4185 65.2564 49.5218 74.7305 36.7168 76.8298C37.0367 78.585 37.5847 80.3415 38.3656 82.0681C39.6142 84.8304 41.3799 87.3509 43.5547 89.5415C48.1419 84.1494 59.2534 70.1347 63.2884 56.5243C63.3431 55.7222 63.4164 54.8902 63.5125 54.0285Z" fill="#030303"/>
<path d="M5.14722 14.5276C11.9636 17.8294 18.1824 28.6872 18.1824 28.6872L20.1252 28.2628C11.1999 14.9868 7.24423 13.6189 7.24423 13.6189L5.14722 14.5276Z" fill="#030303"/>
<path d="M35.6575 27.0717L37.7694 27.2723V8.65063H35.6575V27.0717Z" fill="#030303"/>
<path d="M144.05 34.313C144.05 30.1641 139.993 29.1464 136.492 29.1464C132.992 29.1464 128.934 30.1641 128.934 34.313C128.934 38.462 132.992 39.4797 136.492 39.4797C139.993 39.4797 144.05 38.462 144.05 34.313ZM140.868 65.2346C140.868 62.573 138.959 61.5554 136.492 61.5554C134.026 61.5554 132.116 62.573 132.116 65.2346C132.116 67.8962 134.026 68.9139 136.492 68.9139C138.959 68.9139 140.868 67.8962 140.868 65.2346ZM151.609 65.2346C151.609 73.5326 143.732 76.977 136.492 76.977C129.173 76.977 121.376 73.2195 121.376 65.2346C121.376 59.3634 125.752 55.371 131.321 54.1185V49.8913C129.014 49.4998 127.025 48.7953 125.274 47.7776C120.103 45.116 117 40.0277 117 34.313C117 23.51 126.786 18.2651 136.492 18.2651C140.788 18.2651 144.448 19.0479 147.471 20.6919C150.574 19.2045 153.598 18.6565 157.019 18.6565H160.121V28.1287H158.371H156.621C156.064 28.207 155.427 28.2853 154.791 28.4418C155.587 30.2423 155.984 32.1994 155.984 34.313C155.984 42.6893 149.858 48.169 142.061 49.813V54.1968C147.392 55.6842 151.609 59.52 151.609 65.2346ZM174.304 38.2272V57.7978H162.37V38.3054C162.37 25.3105 172.076 18.2651 184.329 18.2651C184.726 18.2651 185.283 18.2651 185.84 18.3434C186.397 18.4217 187.034 18.5782 187.591 18.6565V30.0075C187.193 29.9292 186.715 29.8509 186.159 29.7726C185.602 29.6944 185.124 29.6161 184.726 29.6161C182.737 29.6161 181.146 29.8509 179.794 30.2423C177.566 31.0252 175.577 32.5125 174.861 34.861C174.463 35.8787 174.304 37.0529 174.304 38.2272ZM218.64 38.2272C218.322 32.5125 215.696 29.1464 209.65 29.1464C207.979 29.1464 206.547 29.3812 205.353 29.8509C201.694 31.4949 200.341 34.5479 200.341 38.3054C200.341 39.558 200.5 40.7322 200.898 41.7499C202.091 45.8206 205.672 47.3079 209.65 47.3079C215.696 47.3079 218.64 44.0983 218.64 38.2272ZM233.756 57.7978H221.822C221.027 55.8407 220.311 53.8837 219.833 51.8483C217.128 56.2321 212.991 58.1892 207.899 58.1892C196.522 58.1892 188.407 48.7953 188.407 38.0706C188.407 25.7019 197.795 18.2651 209.65 18.2651C222.3 18.2651 230.256 26.2499 230.574 38.2272C230.653 39.2448 230.653 40.4191 230.653 41.8282C230.653 47.3079 231.529 52.7877 233.756 57.7978ZM264.408 38.2272C264.408 32.356 261.464 29.1464 255.418 29.1464C253.747 29.1464 252.315 29.3812 251.121 29.8509C248.894 30.8686 247.382 32.356 246.666 34.7044C246.268 35.8004 246.109 36.9746 246.109 38.2272C246.109 39.4797 246.268 40.6539 246.666 41.7499C247.302 44.0201 248.973 45.664 251.121 46.5251C252.315 47.0731 253.747 47.3079 255.418 47.3079C261.464 47.3079 264.408 44.0983 264.408 38.2272ZM264.408 22.5706V3H276.342V38.2272C276.342 50.6741 267.352 58.1892 255.338 58.1892C243.086 58.1892 234.175 50.361 234.175 38.3837C234.175 27.3459 242.449 18.2651 253.747 18.2651C257.963 18.2651 261.623 19.4393 264.408 22.5706ZM294.184 38.2272C294.184 44.0201 297.128 47.3079 303.095 47.3079C304.766 47.3079 306.277 47.0731 307.471 46.5251C309.698 45.664 311.21 44.0201 312.006 41.7499C312.324 40.6539 312.483 39.4797 312.483 38.2272C312.483 36.9746 312.324 35.8004 312.006 34.7044C311.13 32.2777 309.778 30.9469 307.471 29.8509C306.277 29.3812 304.766 29.1464 303.095 29.1464C297.128 29.1464 294.184 32.4342 294.184 38.2272ZM282.25 3H294.184V22.5706C296.889 19.5176 300.549 18.2651 304.607 18.2651C316.222 18.2651 324.417 27.4242 324.417 38.3837C324.417 50.7524 315.108 58.1892 303.254 58.1892C290.922 58.1892 282.25 50.2044 282.25 38.2272V3ZM338.679 33.5302C339.873 33.9216 341.225 34.2347 342.657 34.3913C344.089 34.6262 345.442 34.7044 346.715 34.7044C348.306 34.7044 352.363 34.3913 352.363 32.1211C352.363 29.6944 348.863 29.6161 347.113 29.6161C343.612 29.6161 340.589 30.3989 338.679 33.5302ZM361.195 45.5857V56.5453C356.739 57.563 352.284 58.2675 347.669 58.2675C335.019 58.2675 325.631 50.9872 325.631 38.3837C325.631 25.9368 334.701 18.2651 346.715 18.2651C354.909 18.2651 364.377 22.1009 364.377 31.26C364.377 40.3408 354.352 43.7069 346.635 43.7069C343.691 43.7069 340.748 42.9241 338.043 41.8282C339.634 46.212 344.407 46.9165 348.545 46.9165C350.693 46.9165 352.841 46.8382 354.989 46.5251C356.978 46.3685 359.285 46.1337 361.195 45.5857ZM378.957 33.5302C380.151 33.9216 381.503 34.2347 382.935 34.3913C384.368 34.6262 385.72 34.7044 386.993 34.7044C388.584 34.7044 392.642 34.3913 392.642 32.1211C392.642 29.6944 389.141 29.6161 387.391 29.6161C383.89 29.6161 380.867 30.3989 378.957 33.5302ZM401.473 45.5857V56.5453C397.018 57.563 392.562 58.2675 387.948 58.2675C375.298 58.2675 365.91 50.9872 365.91 38.3837C365.91 25.9368 374.979 18.2651 386.993 18.2651C395.188 18.2651 404.655 22.1009 404.655 31.26C404.655 40.3408 394.631 43.7069 386.913 43.7069C383.97 43.7069 381.026 42.9241 378.321 41.8282C379.912 46.212 384.686 46.9165 388.823 46.9165C390.971 46.9165 393.119 46.8382 395.267 46.5251C397.256 46.3685 399.563 46.1337 401.473 45.5857ZM406.665 56.5453V45.5857C411.916 47.1514 418.52 47.4645 423.93 47.4645C426.078 47.4645 427.749 47.3862 428.942 47.1514C430.056 46.9948 430.613 46.6034 430.613 46.0554C430.613 45.8206 430.533 45.664 430.374 45.4292C429.579 44.6463 427.828 44.2549 426.794 44.0201C425.76 43.7852 424.407 43.4721 422.736 43.159C421.384 42.9241 419.793 42.611 417.963 42.2196C411.757 40.8888 406.984 37.4443 406.984 30.8686C406.984 21.1616 416.61 18.2651 424.725 18.2651C429.817 18.2651 434.909 18.9696 439.921 19.9873V31.0252C434.909 29.5378 429.26 29.1464 424.009 29.1464C421.941 29.1464 420.509 29.2247 419.634 29.4595C418.758 29.6944 418.281 30.0858 418.281 30.5555C418.281 31.26 418.997 31.7297 420.35 31.9645C421.702 32.2777 423.611 32.6691 425.919 33.0605C427.987 33.4519 429.976 33.8433 431.886 34.313C437.773 35.8004 441.99 38.9317 441.99 45.1943C441.99 55.6842 431.249 58.2675 422.657 58.2675C417.247 58.2675 411.916 57.563 406.665 56.5453Z" fill="#030303"/>
</svg>
