<svg xmlns="http://www.w3.org/2000/svg" xmlns:xlink="http://www.w3.org/1999/xlink" width="155" height="19.328" viewBox="0 0 155 19.328">
  <defs>
    <clipPath id="clip-path">
      <rect id="Rectangle_1" data-name="Rectangle 1" width="155" height="19.328" fill="none"/>
    </clipPath>
  </defs>
  <g id="Group_25" data-name="Group 25" transform="translate(0)">
    <path id="Path_1" data-name="Path 1" d="M11.044,3.231l.182,11.539L4.506,3.231H0v18.39H4.428L4.272,10.238,10.94,21.621h4.506V3.231Z" transform="translate(0 -2.788)"/>
    <g id="Group_2" data-name="Group 2" transform="translate(0)">
      <g id="Group_1" data-name="Group 1" clip-path="url(#clip-path)">
        <path id="Path_2" data-name="Path 2" d="M132.374,49.5V48.273c-.286.208-.547.391-.834.573a5.848,5.848,0,0,1-3.334,1.016,4.148,4.148,0,0,1-4.011-2.24,4.335,4.335,0,0,1-.443-1.9,4.463,4.463,0,0,1,2.787-3.881,30.2,30.2,0,0,1,5.444-1.276v-.755a1.439,1.439,0,0,0-1.537-1.641,1.952,1.952,0,0,0-1.928.99,2.368,2.368,0,0,0-.182.6h-4.012a4,4,0,0,1,1.094-2.735,5.581,5.581,0,0,1,3.074-1.38,12.841,12.841,0,0,1,1.745-.1c1.9,0,4.48.443,5.392,2.4a3.338,3.338,0,0,1,.287,1.511v7.945a3.308,3.308,0,0,0,.391,2.11ZM129.4,43.844a3.486,3.486,0,0,0-.469.182c-.99.417-1.25.99-1.25,1.511a1.6,1.6,0,0,0,.156.625,1.531,1.531,0,0,0,1.381.755,2.825,2.825,0,0,0,1.537-.547c1.172-.834,1.224-2.11,1.224-3.386Z" transform="translate(-106.789 -30.664)"/>
        <path id="Path_3" data-name="Path 3" d="M235.382,21.621l-3.49-5.861L230.172,17.4v4.22h-3.907V3.23H230.2v9.456l4.4-4.663h4.819l-4.689,4.845,5.288,8.752Z" transform="translate(-195.249 -2.788)"/>
        <path id="Path_4" data-name="Path 4" d="M321.848,43.2a3.314,3.314,0,0,0,.052.808,2.971,2.971,0,0,0,3.048,2.579,3.781,3.781,0,0,0,1.3-.235,4.113,4.113,0,0,0,2.136-2.188l3.022,1.563a15.352,15.352,0,0,1-1.146,1.537,7.539,7.539,0,0,1-5.626,2.4,8.217,8.217,0,0,1-2.449-.365c-3.022-.938-4.428-3.595-4.428-6.668a8.161,8.161,0,0,1,1.745-5.314,7.168,7.168,0,0,1,10.549.313,9.985,9.985,0,0,1,1.511,5.574Zm4.09-4.923a2.662,2.662,0,0,0-1.224-.261,2.745,2.745,0,0,0-2.527,1.641,4.641,4.641,0,0,0-.312,1.042h5.548a2.705,2.705,0,0,0-1.485-2.422" transform="translate(-274.201 -30.336)"/>
        <path id="Path_5" data-name="Path 5" d="M434.162,21.621l-.026-1.276a6.806,6.806,0,0,1-.781.7,4.835,4.835,0,0,1-2.891.938,5.627,5.627,0,0,1-4.532-2.4,7.584,7.584,0,0,1-1.276-4.689c0-.781,0-4.324,2.579-6.226a5,5,0,0,1,3.1-1.016A5.412,5.412,0,0,1,433.9,9.04V3.231h3.907v18.39Zm-.834-9.924a2.171,2.171,0,0,0-2.136-1.016,2.5,2.5,0,0,0-1.771,1.146,5.66,5.66,0,0,0-.7,3,6.233,6.233,0,0,0,.755,3.2,2.124,2.124,0,0,0,1.823.99,2.37,2.37,0,0,0,1.406-.495c1.38-1.094,1.3-3.36,1.3-3.7a5.832,5.832,0,0,0-.677-3.126" transform="translate(-366.444 -2.788)"/>
        <path id="Path_6" data-name="Path 6" d="M590.412,15.733c-1.589,2.891-4.9,3.282-5.783,3.386a14.376,14.376,0,0,1-1.849.13,10.39,10.39,0,0,1-6.929-2.214,10.819,10.819,0,0,1-1.459-1.537l3.491-2.188a8.06,8.06,0,0,0,.807.781,7.419,7.419,0,0,0,4.506,1.537,5.072,5.072,0,0,0,1.433-.182c.13-.026,1.954-.547,1.954-1.954,0-1.693-2.449-1.745-4.09-1.98a22.766,22.766,0,0,1-2.6-.469,6.234,6.234,0,0,1-3.464-1.927,4.162,4.162,0,0,1-.782-1.355,5.722,5.722,0,0,1-.234-1.615,10.827,10.827,0,0,1,.1-1.276A5.068,5.068,0,0,1,577.1,1.928,8.121,8.121,0,0,1,582.832,0,10.683,10.683,0,0,1,588.9,1.823a17.844,17.844,0,0,1,2.032,1.641l-3.386,2.422a7.035,7.035,0,0,0-3.1-2.006,7.18,7.18,0,0,0-1.719-.26c-1.875,0-2.735,1.094-2.735,1.953a1.391,1.391,0,0,0,.391.964c.625.677,1.641.651,3.36.912,1.042.156,2.058.365,3.074.6a5.173,5.173,0,0,1,3.959,2.839,5.509,5.509,0,0,1,.365,1.98,5.913,5.913,0,0,1-.729,2.865" transform="translate(-495.656)"/>
        <path id="Path_7" data-name="Path 7" d="M703.278,16.221v6.1a2.455,2.455,0,0,0,.1,1.094,1.083,1.083,0,0,0,.938.443c.469,0,.938-.026,1.407-.026v3.1a12.287,12.287,0,0,1-2.11.208c-.287,0-.573,0-.833-.026a3.778,3.778,0,0,1-2.474-.834c-1.042-.912-.99-2.292-.99-3.542V16.2h-1.98V13.747h1.98V9.5h3.959v4.272h2.657v2.449Z" transform="translate(-601.75 -8.199)"/>
        <path id="Path_8" data-name="Path 8" d="M776.957,51.793V50.517a6.243,6.243,0,0,1-.6.6A5.588,5.588,0,0,1,773,52.184a4.936,4.936,0,0,1-2.891-.834c-1.511-1.2-1.38-3.386-1.38-5.053V38.2h4.037v8.466c0,.859.026,1.511.755,1.954a2.437,2.437,0,0,0,3.308-.912,2.816,2.816,0,0,0,.156-1.042V38.2h3.985v13.6Z" transform="translate(-663.35 -32.96)"/>
        <path id="Path_9" data-name="Path 9" d="M876.349,21.621l-.026-1.276a6.8,6.8,0,0,1-.781.7,4.835,4.835,0,0,1-2.891.938,5.627,5.627,0,0,1-4.532-2.4,7.583,7.583,0,0,1-1.276-4.689c0-.781,0-4.324,2.579-6.226a5,5,0,0,1,3.1-1.016,5.412,5.412,0,0,1,3.569,1.381V3.231H880v18.39Zm-.834-9.924a2.171,2.171,0,0,0-2.136-1.016,2.5,2.5,0,0,0-1.771,1.146,5.661,5.661,0,0,0-.7,3,6.233,6.233,0,0,0,.755,3.2,2.124,2.124,0,0,0,1.823.99,2.369,2.369,0,0,0,1.407-.495c1.381-1.094,1.3-3.36,1.3-3.7a5.831,5.831,0,0,0-.677-3.126" transform="translate(-748.017 -2.788)"/>
        <path id="Path_10" data-name="Path 10" d="M980.666,3.231h3.985v3.1h-3.985Zm0,4.793h3.985v13.6h-3.985Z" transform="translate(-846.24 -2.788)"/>
        <path id="Path_11" data-name="Path 11" d="M1033.168,48.031a7.55,7.55,0,0,1-4.923,1.589,8.073,8.073,0,0,1-5.34-1.954,7.158,7.158,0,0,1-1.954-5.288,7.548,7.548,0,0,1,1.589-4.845c.938-1.12,2.813-2.527,6.252-2.318a7.058,7.058,0,0,1,4.272,1.459,7.3,7.3,0,0,1,2.5,5.731,7.117,7.117,0,0,1-2.4,5.626m-3.1-9.143a3.168,3.168,0,0,0-1.98-.521,3.4,3.4,0,0,0-1.511.391,4.009,4.009,0,0,0-1.589,3.595,5.382,5.382,0,0,0,.7,2.735,3.017,3.017,0,0,0,2.6,1.329c2.214,0,3.2-1.849,3.2-3.881,0-2.058-.651-3.1-1.432-3.647" transform="translate(-881.003 -30.37)"/>
        <path id="Path_12" data-name="Path 12" d="M1124,82.675a.536.536,0,1,1-.536-.536.536.536,0,0,1,.536.536" transform="translate(-969.003 -70.88)"/>
      </g>
    </g>
  </g>
</svg>
